<svg id="visual" viewBox="0 0 960 540" width="960" height="540" xmlns="http://www.w3.org/2000/svg" xmlns:xlink="http://www.w3.org/1999/xlink" version="1.1"><g stroke-width="1" stroke-linejoin="bevel"><path d="M476 294L483 303L507 273Z" fill="#0a3592" stroke="#0a3592"></path><path d="M507 273L435 248L476 294Z" fill="#082e81" stroke="#082e81"></path><path d="M517 242L435 248L507 273Z" fill="#062670" stroke="#062670"></path><path d="M476 294L444 338L483 303Z" fill="#0b3da3" stroke="#0b3da3"></path><path d="M386 306L444 338L476 294Z" fill="#0a3592" stroke="#0a3592"></path><path d="M444 338L484 360L483 303Z" fill="#0b3da3" stroke="#0b3da3"></path><path d="M483 303L552 351L507 273Z" fill="#0066ff" stroke="#0066ff"></path><path d="M619 236L530 221L517 242Z" fill="#0a3592" stroke="#0a3592"></path><path d="M619 236L517 242L507 273Z" fill="#0b3da3" stroke="#0b3da3"></path><path d="M517 242L490 164L435 248Z" fill="#021851" stroke="#021851"></path><path d="M484 360L552 351L483 303Z" fill="#065dec" stroke="#065dec"></path><path d="M484 360L560 373L552 351Z" fill="#0c45b5" stroke="#0c45b5"></path><path d="M552 351L619 236L507 273Z" fill="#0955d9" stroke="#0955d9"></path><path d="M435 248L386 306L476 294Z" fill="#082e81" stroke="#082e81"></path><path d="M530 221L490 164L517 242Z" fill="#065dec" stroke="#065dec"></path><path d="M435 248L368 244L386 306Z" fill="#0a3592" stroke="#0a3592"></path><path d="M524 416L585 381L560 373Z" fill="#0b3da3" stroke="#0b3da3"></path><path d="M560 373L585 381L552 351Z" fill="#0066ff" stroke="#0066ff"></path><path d="M472 439L524 416L484 360Z" fill="#0b4dc7" stroke="#0b4dc7"></path><path d="M484 360L524 416L560 373Z" fill="#021851" stroke="#021851"></path><path d="M472 439L484 360L442 447Z" fill="#062670" stroke="#062670"></path><path d="M490 164L368 244L435 248Z" fill="#0066ff" stroke="#0066ff"></path><path d="M659 267L619 236L552 351Z" fill="#0c45b5" stroke="#0c45b5"></path><path d="M530 221L547 156L490 164Z" fill="#041f61" stroke="#041f61"></path><path d="M599 150L547 156L530 221Z" fill="#0955d9" stroke="#0955d9"></path><path d="M313 240L349 250L296 184Z" fill="#062670" stroke="#062670"></path><path d="M368 244L349 250L386 306Z" fill="#041f61" stroke="#041f61"></path><path d="M442 447L444 338L380 431Z" fill="#0066ff" stroke="#0066ff"></path><path d="M442 447L484 360L444 338Z" fill="#0066ff" stroke="#0066ff"></path><path d="M565 121L532 138L547 156Z" fill="#062670" stroke="#062670"></path><path d="M547 156L532 138L490 164Z" fill="#0c45b5" stroke="#0c45b5"></path><path d="M490 164L319 150L368 244Z" fill="#0066ff" stroke="#0066ff"></path><path d="M660 361L659 267L552 351Z" fill="#0b4dc7" stroke="#0b4dc7"></path><path d="M619 236L599 150L530 221Z" fill="#062670" stroke="#062670"></path><path d="M342 373L444 338L386 306Z" fill="#0a3592" stroke="#0a3592"></path><path d="M524 416L611 414L585 381Z" fill="#065dec" stroke="#065dec"></path><path d="M585 381L660 361L552 351Z" fill="#082e81" stroke="#082e81"></path><path d="M547 475L611 414L524 416Z" fill="#082e81" stroke="#082e81"></path><path d="M547 475L524 416L472 439Z" fill="#0c45b5" stroke="#0c45b5"></path><path d="M690 232L599 150L619 236Z" fill="#0b4dc7" stroke="#0b4dc7"></path><path d="M311 342L342 373L386 306Z" fill="#0a3592" stroke="#0a3592"></path><path d="M565 121L506 108L532 138Z" fill="#062670" stroke="#062670"></path><path d="M532 138L506 108L490 164Z" fill="#065dec" stroke="#065dec"></path><path d="M599 150L565 121L547 156Z" fill="#082e81" stroke="#082e81"></path><path d="M652 386L660 361L585 381Z" fill="#065dec" stroke="#065dec"></path><path d="M342 373L380 431L444 338Z" fill="#0b4dc7" stroke="#0b4dc7"></path><path d="M460 540L471 471L424 540Z" fill="#082e81" stroke="#082e81"></path><path d="M442 447L471 471L472 439Z" fill="#0955d9" stroke="#0955d9"></path><path d="M652 386L663 365L660 361Z" fill="#0c45b5" stroke="#0c45b5"></path><path d="M731 340L716 266L659 267Z" fill="#0b3da3" stroke="#0b3da3"></path><path d="M611 414L652 386L585 381Z" fill="#0b3da3" stroke="#0b3da3"></path><path d="M296 184L349 250L368 244Z" fill="#082e81" stroke="#082e81"></path><path d="M349 250L311 342L386 306Z" fill="#041f61" stroke="#041f61"></path><path d="M285 304L311 342L349 250Z" fill="#0b3da3" stroke="#0b3da3"></path><path d="M300 429L378 465L380 431Z" fill="#021851" stroke="#021851"></path><path d="M471 471L547 475L472 439Z" fill="#062670" stroke="#062670"></path><path d="M611 414L658 413L652 386Z" fill="#0955d9" stroke="#0955d9"></path><path d="M716 266L690 232L659 267Z" fill="#082e81" stroke="#082e81"></path><path d="M659 267L690 232L619 236Z" fill="#0c45b5" stroke="#0c45b5"></path><path d="M652 386L658 413L663 365Z" fill="#021851" stroke="#021851"></path><path d="M731 340L659 267L660 361Z" fill="#0a3592" stroke="#0a3592"></path><path d="M593 487L658 413L611 414Z" fill="#065dec" stroke="#065dec"></path><path d="M313 240L285 304L349 250Z" fill="#0b3da3" stroke="#0b3da3"></path><path d="M300 429L380 431L342 373Z" fill="#021851" stroke="#021851"></path><path d="M380 431L378 465L442 447Z" fill="#021851" stroke="#021851"></path><path d="M300 429L342 373L311 342Z" fill="#0b3da3" stroke="#0b3da3"></path><path d="M538 521L521 502L460 540Z" fill="#0a3592" stroke="#0a3592"></path><path d="M471 471L521 502L547 475Z" fill="#0a3592" stroke="#0a3592"></path><path d="M547 475L593 487L611 414Z" fill="#0b3da3" stroke="#0b3da3"></path><path d="M358 70L319 150L490 164Z" fill="#082e81" stroke="#082e81"></path><path d="M313 240L249 249L285 304Z" fill="#0c45b5" stroke="#0c45b5"></path><path d="M538 521L593 487L547 475Z" fill="#062670" stroke="#062670"></path><path d="M731 340L660 361L663 365Z" fill="#0b4dc7" stroke="#0b4dc7"></path><path d="M319 150L296 184L368 244Z" fill="#0a3592" stroke="#0a3592"></path><path d="M599 150L620 101L565 121Z" fill="#062670" stroke="#062670"></path><path d="M589 66L474 49L506 108Z" fill="#062670" stroke="#062670"></path><path d="M648 97L620 101L599 150Z" fill="#062670" stroke="#062670"></path><path d="M648 97L599 150L690 232Z" fill="#021851" stroke="#021851"></path><path d="M521 502L538 521L547 475Z" fill="#0066ff" stroke="#0066ff"></path><path d="M460 540L521 502L471 471Z" fill="#0955d9" stroke="#0955d9"></path><path d="M589 66L506 108L565 121Z" fill="#0955d9" stroke="#0955d9"></path><path d="M506 108L458 48L490 164Z" fill="#0955d9" stroke="#0955d9"></path><path d="M251 385L300 429L311 342Z" fill="#0b3da3" stroke="#0b3da3"></path><path d="M620 101L589 66L565 121Z" fill="#065dec" stroke="#065dec"></path><path d="M474 49L458 48L506 108Z" fill="#082e81" stroke="#082e81"></path><path d="M778 328L731 340L768 407Z" fill="#065dec" stroke="#065dec"></path><path d="M768 407L731 340L663 365Z" fill="#0955d9" stroke="#0955d9"></path><path d="M671 85L648 97L687 88Z" fill="#0a3592" stroke="#0a3592"></path><path d="M620 101L648 97L589 66Z" fill="#0066ff" stroke="#0066ff"></path><path d="M255 195L313 240L296 184Z" fill="#0955d9" stroke="#0955d9"></path><path d="M255 195L249 249L313 240Z" fill="#062670" stroke="#062670"></path><path d="M285 304L241 312L311 342Z" fill="#0066ff" stroke="#0066ff"></path><path d="M751 308L744 243L716 266Z" fill="#062670" stroke="#062670"></path><path d="M716 266L744 243L690 232Z" fill="#0066ff" stroke="#0066ff"></path><path d="M249 249L241 312L285 304Z" fill="#0b3da3" stroke="#0b3da3"></path><path d="M424 540L442 447L378 465Z" fill="#0c45b5" stroke="#0c45b5"></path><path d="M424 540L471 471L442 447Z" fill="#0a3592" stroke="#0a3592"></path><path d="M236 184L255 195L296 184Z" fill="#041f61" stroke="#041f61"></path><path d="M249 249L219 298L241 312Z" fill="#082e81" stroke="#082e81"></path><path d="M236 184L296 184L319 150Z" fill="#082e81" stroke="#082e81"></path><path d="M458 48L358 70L490 164Z" fill="#065dec" stroke="#065dec"></path><path d="M255 195L241 242L249 249Z" fill="#0b4dc7" stroke="#0b4dc7"></path><path d="M731 340L751 308L716 266Z" fill="#021851" stroke="#021851"></path><path d="M538 521L553 540L593 487Z" fill="#0b4dc7" stroke="#0b4dc7"></path><path d="M593 487L672 528L658 413Z" fill="#082e81" stroke="#082e81"></path><path d="M460 540L553 540L538 521Z" fill="#0b4dc7" stroke="#0b4dc7"></path><path d="M241 312L251 385L311 342Z" fill="#0a3592" stroke="#0a3592"></path><path d="M397 540L424 540L378 465Z" fill="#0a3592" stroke="#0a3592"></path><path d="M746 172L648 97L690 232Z" fill="#0b3da3" stroke="#0b3da3"></path><path d="M639 0L630 0L589 66Z" fill="#0b3da3" stroke="#0b3da3"></path><path d="M553 540L589 540L593 487Z" fill="#0c45b5" stroke="#0c45b5"></path><path d="M348 540L397 540L378 465Z" fill="#062670" stroke="#062670"></path><path d="M348 540L378 465L300 429Z" fill="#0a3592" stroke="#0a3592"></path><path d="M202 283L219 298L249 249Z" fill="#062670" stroke="#062670"></path><path d="M241 312L155 393L251 385Z" fill="#041f61" stroke="#041f61"></path><path d="M202 283L249 249L241 242Z" fill="#041f61" stroke="#041f61"></path><path d="M744 243L746 172L690 232Z" fill="#021851" stroke="#021851"></path><path d="M785 223L746 172L744 243Z" fill="#082e81" stroke="#082e81"></path><path d="M746 172L687 88L648 97Z" fill="#062670" stroke="#062670"></path><path d="M603 0L474 49L589 66Z" fill="#0c45b5" stroke="#0c45b5"></path><path d="M198 109L236 184L319 150Z" fill="#0a3592" stroke="#0a3592"></path><path d="M255 195L236 184L241 242Z" fill="#062670" stroke="#062670"></path><path d="M731 340L778 328L751 308Z" fill="#041f61" stroke="#041f61"></path><path d="M751 308L780 249L744 243Z" fill="#082e81" stroke="#082e81"></path><path d="M768 407L663 365L658 413Z" fill="#0955d9" stroke="#0955d9"></path><path d="M778 328L780 249L751 308Z" fill="#0955d9" stroke="#0955d9"></path><path d="M474 49L460 0L458 48Z" fill="#0a3592" stroke="#0a3592"></path><path d="M458 48L412 0L358 70Z" fill="#082e81" stroke="#082e81"></path><path d="M603 0L460 0L474 49Z" fill="#062670" stroke="#062670"></path><path d="M603 0L589 66L630 0Z" fill="#065dec" stroke="#065dec"></path><path d="M257 463L348 540L300 429Z" fill="#0b3da3" stroke="#0b3da3"></path><path d="M155 259L202 283L241 242Z" fill="#0a3592" stroke="#0a3592"></path><path d="M191 419L202 432L251 385Z" fill="#0066ff" stroke="#0066ff"></path><path d="M202 432L257 463L251 385Z" fill="#065dec" stroke="#065dec"></path><path d="M251 385L257 463L300 429Z" fill="#082e81" stroke="#082e81"></path><path d="M589 540L649 540L593 487Z" fill="#0955d9" stroke="#0955d9"></path><path d="M830 243L785 223L780 249Z" fill="#0c45b5" stroke="#0c45b5"></path><path d="M780 249L785 223L744 243Z" fill="#0955d9" stroke="#0955d9"></path><path d="M715 0L671 85L687 88Z" fill="#062670" stroke="#062670"></path><path d="M460 0L412 0L458 48Z" fill="#062670" stroke="#062670"></path><path d="M278 0L198 109L319 150Z" fill="#021851" stroke="#021851"></path><path d="M769 519L768 407L658 413Z" fill="#0c45b5" stroke="#0c45b5"></path><path d="M649 540L672 528L593 487Z" fill="#041f61" stroke="#041f61"></path><path d="M589 66L648 97L639 0Z" fill="#062670" stroke="#062670"></path><path d="M639 0L648 97L671 85Z" fill="#0c45b5" stroke="#0c45b5"></path><path d="M639 0L671 85L715 0Z" fill="#0c45b5" stroke="#0c45b5"></path><path d="M760 60L687 88L746 172Z" fill="#0955d9" stroke="#0955d9"></path><path d="M412 0L347 0L358 70Z" fill="#041f61" stroke="#041f61"></path><path d="M236 184L188 178L241 242Z" fill="#041f61" stroke="#041f61"></path><path d="M179 137L188 178L236 184Z" fill="#0c45b5" stroke="#0c45b5"></path><path d="M191 419L251 385L155 393Z" fill="#0b4dc7" stroke="#0b4dc7"></path><path d="M257 463L288 546L348 540Z" fill="#0c45b5" stroke="#0c45b5"></path><path d="M241 312L219 298L155 393Z" fill="#0c45b5" stroke="#0c45b5"></path><path d="M672 528L706 540L658 413Z" fill="#0c45b5" stroke="#0c45b5"></path><path d="M649 540L706 540L672 528Z" fill="#0c45b5" stroke="#0c45b5"></path><path d="M155 393L219 298L202 283Z" fill="#0066ff" stroke="#0066ff"></path><path d="M238 516L257 463L202 432Z" fill="#021851" stroke="#021851"></path><path d="M238 516L288 546L257 463Z" fill="#0c45b5" stroke="#0c45b5"></path><path d="M348 540L288 546L397 540Z" fill="#0955d9" stroke="#0955d9"></path><path d="M397 540L288 546L424 540Z" fill="#0066ff" stroke="#0066ff"></path><path d="M424 540L288 546L460 540Z" fill="#0c45b5" stroke="#0c45b5"></path><path d="M460 540L288 546L553 540Z" fill="#021851" stroke="#021851"></path><path d="M553 540L179 552L589 540Z" fill="#0a3592" stroke="#0a3592"></path><path d="M589 540L960 549L649 540Z" fill="#082e81" stroke="#082e81"></path><path d="M649 540L960 549L706 540Z" fill="#0c45b5" stroke="#0c45b5"></path><path d="M839 315L830 243L780 249Z" fill="#041f61" stroke="#041f61"></path><path d="M785 223L819 143L746 172Z" fill="#062670" stroke="#062670"></path><path d="M839 315L780 249L778 328Z" fill="#065dec" stroke="#065dec"></path><path d="M347 0L313 0L358 70Z" fill="#041f61" stroke="#041f61"></path><path d="M188 178L155 259L241 242Z" fill="#065dec" stroke="#065dec"></path><path d="M238 540L238 516L179 552Z" fill="#065dec" stroke="#065dec"></path><path d="M769 519L805 434L768 407Z" fill="#041f61" stroke="#041f61"></path><path d="M827 423L839 315L778 328Z" fill="#0b3da3" stroke="#0b3da3"></path><path d="M412 0L307 -2L347 0Z" fill="#065dec" stroke="#065dec"></path><path d="M347 0L307 -2L313 0Z" fill="#041f61" stroke="#041f61"></path><path d="M313 0L278 0L358 70Z" fill="#0066ff" stroke="#0066ff"></path><path d="M202 -10L307 -2L412 0Z" fill="#082e81" stroke="#082e81"></path><path d="M202 -10L412 0L460 0Z" fill="#0b4dc7" stroke="#0b4dc7"></path><path d="M202 -10L460 0L603 0Z" fill="#0b3da3" stroke="#0b3da3"></path><path d="M202 -10L603 0L630 0Z" fill="#082e81" stroke="#082e81"></path><path d="M278 0L319 150L358 70Z" fill="#0955d9" stroke="#0955d9"></path><path d="M188 178L122 185L155 259Z" fill="#0066ff" stroke="#0066ff"></path><path d="M827 423L778 328L768 407Z" fill="#0b3da3" stroke="#0b3da3"></path><path d="M839 315L840 242L830 243Z" fill="#082e81" stroke="#082e81"></path><path d="M830 243L842 226L785 223Z" fill="#0b3da3" stroke="#0b3da3"></path><path d="M198 109L179 137L236 184Z" fill="#082e81" stroke="#082e81"></path><path d="M791 69L760 60L746 172Z" fill="#0955d9" stroke="#0955d9"></path><path d="M866 193L842 226L880 291Z" fill="#0066ff" stroke="#0066ff"></path><path d="M840 242L842 226L830 243Z" fill="#082e81" stroke="#082e81"></path><path d="M155 259L155 393L202 283Z" fill="#0b4dc7" stroke="#0b4dc7"></path><path d="M141 540L179 552L202 432Z" fill="#0a3592" stroke="#0a3592"></path><path d="M842 226L819 143L785 223Z" fill="#041f61" stroke="#041f61"></path><path d="M307 -2L278 0L313 0Z" fill="#021851" stroke="#021851"></path><path d="M899 489L827 423L805 434Z" fill="#082e81" stroke="#082e81"></path><path d="M805 434L827 423L768 407Z" fill="#0b3da3" stroke="#0b3da3"></path><path d="M706 540L769 519L658 413Z" fill="#0a3592" stroke="#0a3592"></path><path d="M179 552L238 516L202 432Z" fill="#062670" stroke="#062670"></path><path d="M238 516L238 540L288 546Z" fill="#0066ff" stroke="#0066ff"></path><path d="M760 60L715 0L687 88Z" fill="#065dec" stroke="#065dec"></path><path d="M639 0L202 -10L630 0Z" fill="#0b3da3" stroke="#0b3da3"></path><path d="M819 143L791 69L746 172Z" fill="#0066ff" stroke="#0066ff"></path><path d="M760 60L795 0L715 0Z" fill="#082e81" stroke="#082e81"></path><path d="M125 104L179 137L198 109Z" fill="#0a3592" stroke="#0a3592"></path><path d="M125 104L145 140L179 137Z" fill="#082e81" stroke="#082e81"></path><path d="M179 137L145 140L188 178Z" fill="#0c45b5" stroke="#0c45b5"></path><path d="M155 259L76 287L155 393Z" fill="#0955d9" stroke="#0955d9"></path><path d="M880 291L842 226L840 242Z" fill="#0066ff" stroke="#0066ff"></path><path d="M842 226L866 181L819 143Z" fill="#082e81" stroke="#082e81"></path><path d="M819 143L833 100L791 69Z" fill="#0066ff" stroke="#0066ff"></path><path d="M880 291L840 242L839 315Z" fill="#0a3592" stroke="#0a3592"></path><path d="M145 140L122 185L188 178Z" fill="#021851" stroke="#021851"></path><path d="M907 431L880 291L839 315Z" fill="#0a3592" stroke="#0a3592"></path><path d="M909 117L866 181L960 234Z" fill="#0066ff" stroke="#0066ff"></path><path d="M866 193L866 181L842 226Z" fill="#062670" stroke="#062670"></path><path d="M867 117L833 100L819 143Z" fill="#0b4dc7" stroke="#0b4dc7"></path><path d="M791 69L795 0L760 60Z" fill="#065dec" stroke="#065dec"></path><path d="M769 519L811 540L805 434Z" fill="#0066ff" stroke="#0066ff"></path><path d="M827 423L907 431L839 315Z" fill="#0b4dc7" stroke="#0b4dc7"></path><path d="M706 540L802 540L769 519Z" fill="#021851" stroke="#021851"></path><path d="M960 549L802 540L706 540Z" fill="#0a3592" stroke="#0a3592"></path><path d="M960 549L811 540L802 540Z" fill="#065dec" stroke="#065dec"></path><path d="M802 540L811 540L769 519Z" fill="#065dec" stroke="#065dec"></path><path d="M866 181L867 117L819 143Z" fill="#062670" stroke="#062670"></path><path d="M842 35L795 0L791 69Z" fill="#062670" stroke="#062670"></path><path d="M909 117L867 117L866 181Z" fill="#0b4dc7" stroke="#0b4dc7"></path><path d="M238 540L179 552L288 546Z" fill="#0b4dc7" stroke="#0b4dc7"></path><path d="M288 546L179 552L553 540Z" fill="#0955d9" stroke="#0955d9"></path><path d="M94 433L202 432L191 419Z" fill="#0955d9" stroke="#0955d9"></path><path d="M94 433L191 419L155 393Z" fill="#041f61" stroke="#041f61"></path><path d="M133 22L125 104L198 109Z" fill="#065dec" stroke="#065dec"></path><path d="M145 140L67 178L122 185Z" fill="#041f61" stroke="#041f61"></path><path d="M842 35L791 69L833 100Z" fill="#0066ff" stroke="#0066ff"></path><path d="M715 0L202 -10L639 0Z" fill="#0955d9" stroke="#0955d9"></path><path d="M307 -2L202 -10L278 0Z" fill="#065dec" stroke="#065dec"></path><path d="M278 0L202 -10L198 109Z" fill="#0a3592" stroke="#0a3592"></path><path d="M795 0L202 -10L715 0Z" fill="#0a3592" stroke="#0a3592"></path><path d="M61 211L155 259L122 185Z" fill="#041f61" stroke="#041f61"></path><path d="M61 211L76 287L155 259Z" fill="#021851" stroke="#021851"></path><path d="M867 117L866 94L833 100Z" fill="#0b4dc7" stroke="#0b4dc7"></path><path d="M909 117L866 94L867 117Z" fill="#062670" stroke="#062670"></path><path d="M84 405L86 406L155 393Z" fill="#0a3592" stroke="#0a3592"></path><path d="M86 406L94 433L155 393Z" fill="#0066ff" stroke="#0066ff"></path><path d="M76 287L84 405L155 393Z" fill="#0955d9" stroke="#0955d9"></path><path d="M86 406L81 409L94 433Z" fill="#041f61" stroke="#041f61"></path><path d="M866 94L842 35L833 100Z" fill="#021851" stroke="#021851"></path><path d="M0 377L81 409L84 405Z" fill="#041f61" stroke="#041f61"></path><path d="M84 405L81 409L86 406Z" fill="#0c45b5" stroke="#0c45b5"></path><path d="M94 433L141 540L202 432Z" fill="#0c45b5" stroke="#0c45b5"></path><path d="M125 540L141 540L94 433Z" fill="#0c45b5" stroke="#0c45b5"></path><path d="M906 447L907 431L827 423Z" fill="#041f61" stroke="#041f61"></path><path d="M960 234L866 181L866 193Z" fill="#082e81" stroke="#082e81"></path><path d="M67 178L61 211L122 185Z" fill="#062670" stroke="#062670"></path><path d="M0 377L64 426L81 409Z" fill="#0066ff" stroke="#0066ff"></path><path d="M125 104L67 178L145 140Z" fill="#082e81" stroke="#082e81"></path><path d="M89 75L67 178L125 104Z" fill="#0b3da3" stroke="#0b3da3"></path><path d="M899 489L906 447L827 423Z" fill="#0955d9" stroke="#0955d9"></path><path d="M960 549L857 540L811 540Z" fill="#0b4dc7" stroke="#0b4dc7"></path><path d="M811 540L857 540L805 434Z" fill="#0955d9" stroke="#0955d9"></path><path d="M141 540L125 540L179 552Z" fill="#0066ff" stroke="#0066ff"></path><path d="M116 540L125 540L94 433Z" fill="#0c45b5" stroke="#0c45b5"></path><path d="M202 -10L133 22L198 109Z" fill="#0a3592" stroke="#0a3592"></path><path d="M960 234L866 193L880 291Z" fill="#065dec" stroke="#065dec"></path><path d="M924 0L859 0L842 35Z" fill="#0a3592" stroke="#0a3592"></path><path d="M0 320L84 405L76 287Z" fill="#041f61" stroke="#041f61"></path><path d="M81 409L64 426L94 433Z" fill="#065dec" stroke="#065dec"></path><path d="M857 540L899 489L805 434Z" fill="#082e81" stroke="#082e81"></path><path d="M202 -10L144 0L133 22Z" fill="#0c45b5" stroke="#0c45b5"></path><path d="M0 517L116 540L94 433Z" fill="#065dec" stroke="#065dec"></path><path d="M125 540L116 540L179 552Z" fill="#0c45b5" stroke="#0c45b5"></path><path d="M101 0L89 75L133 22Z" fill="#021851" stroke="#021851"></path><path d="M133 22L89 75L125 104Z" fill="#0066ff" stroke="#0066ff"></path><path d="M67 178L43 193L61 211Z" fill="#0b3da3" stroke="#0b3da3"></path><path d="M0 237L0 278L76 287Z" fill="#041f61" stroke="#041f61"></path><path d="M0 57L43 193L67 178Z" fill="#062670" stroke="#062670"></path><path d="M924 0L842 35L866 94Z" fill="#0066ff" stroke="#0066ff"></path><path d="M842 35L859 0L795 0Z" fill="#0955d9" stroke="#0955d9"></path><path d="M795 0L859 0L202 -10Z" fill="#0066ff" stroke="#0066ff"></path><path d="M960 305L880 291L960 328Z" fill="#082e81" stroke="#082e81"></path><path d="M960 305L960 275L880 291Z" fill="#041f61" stroke="#041f61"></path><path d="M880 291L907 431L960 328Z" fill="#0b3da3" stroke="#0b3da3"></path><path d="M960 328L907 431L960 396Z" fill="#065dec" stroke="#065dec"></path><path d="M960 396L907 431L906 447Z" fill="#062670" stroke="#062670"></path><path d="M960 275L960 234L880 291Z" fill="#0955d9" stroke="#0955d9"></path><path d="M960 38L924 0L866 94Z" fill="#065dec" stroke="#065dec"></path><path d="M144 0L112 0L133 22Z" fill="#0066ff" stroke="#0066ff"></path><path d="M0 57L0 237L43 193Z" fill="#0b4dc7" stroke="#0b4dc7"></path><path d="M202 -10L112 0L144 0Z" fill="#0955d9" stroke="#0955d9"></path><path d="M960 540L960 396L906 447Z" fill="#082e81" stroke="#082e81"></path><path d="M202 -10L101 0L112 0Z" fill="#0066ff" stroke="#0066ff"></path><path d="M112 0L101 0L133 22Z" fill="#065dec" stroke="#065dec"></path><path d="M0 237L61 211L43 193Z" fill="#065dec" stroke="#065dec"></path><path d="M0 237L76 287L61 211Z" fill="#082e81" stroke="#082e81"></path><path d="M0 278L0 320L76 287Z" fill="#0c45b5" stroke="#0c45b5"></path><path d="M64 426L0 517L94 433Z" fill="#041f61" stroke="#041f61"></path><path d="M0 57L67 178L89 75Z" fill="#0c45b5" stroke="#0c45b5"></path><path d="M0 320L0 377L84 405Z" fill="#065dec" stroke="#065dec"></path><path d="M960 234L960 96L909 117Z" fill="#021851" stroke="#021851"></path><path d="M0 377L0 407L64 426Z" fill="#021851" stroke="#021851"></path><path d="M960 38L866 94L909 117Z" fill="#0a3592" stroke="#0a3592"></path><path d="M859 0L924 0L202 -10Z" fill="#041f61" stroke="#041f61"></path><path d="M960 96L960 38L909 117Z" fill="#065dec" stroke="#065dec"></path><path d="M857 540L960 540L899 489Z" fill="#0b3da3" stroke="#0b3da3"></path><path d="M899 489L960 540L906 447Z" fill="#0a3592" stroke="#0a3592"></path><path d="M960 549L960 540L857 540Z" fill="#062670" stroke="#062670"></path><path d="M0 320L-12 446L0 377Z" fill="#065dec" stroke="#065dec"></path><path d="M0 377L-12 446L0 407Z" fill="#0b3da3" stroke="#0b3da3"></path><path d="M0 407L-12 446L64 426Z" fill="#021851" stroke="#021851"></path><path d="M0 278L-12 446L0 320Z" fill="#062670" stroke="#062670"></path><path d="M0 237L-12 446L0 278Z" fill="#0a3592" stroke="#0a3592"></path><path d="M179 552L960 549L589 540Z" fill="#021851" stroke="#021851"></path><path d="M-12 446L0 517L64 426Z" fill="#0955d9" stroke="#0955d9"></path><path d="M0 53L0 57L89 75Z" fill="#0b3da3" stroke="#0b3da3"></path><path d="M0 237L0 57L-12 446Z" fill="#021851" stroke="#021851"></path><path d="M101 0L0 53L89 75Z" fill="#0b4dc7" stroke="#0b4dc7"></path><path d="M0 57L0 53L-12 446Z" fill="#0a3592" stroke="#0a3592"></path><path d="M960 38L960 0L924 0Z" fill="#082e81" stroke="#082e81"></path><path d="M924 0L960 0L202 -10Z" fill="#0b4dc7" stroke="#0b4dc7"></path><path d="M-12 446L0 540L0 517Z" fill="#0a3592" stroke="#0a3592"></path><path d="M0 517L0 540L116 540Z" fill="#065dec" stroke="#065dec"></path><path d="M116 540L0 540L179 552Z" fill="#0066ff" stroke="#0066ff"></path><path d="M202 -10L0 0L101 0Z" fill="#082e81" stroke="#082e81"></path><path d="M101 0L0 0L0 53Z" fill="#062670" stroke="#062670"></path><path d="M0 53L0 0L-12 446Z" fill="#082e81" stroke="#082e81"></path></g></svg>